<svg width="162" height="93" viewBox="0 0 162 93" fill="none" xmlns="http://www.w3.org/2000/svg">
<path d="M91.953 92.2237C73.5799 83.9791 72.9269 65.9169 76.5295 53.7128L68.3112 43.5426L59.9803 53.7128C67.4556 77.6872 53.7884 86.7997 44.8945 92.2237C70.4727 82.4604 80.0195 88.6981 91.953 92.2237Z" fill="#007A05"/>
<path d="M116.564 68.0183C93.3048 57.8494 74.6888 31.9582 68.2881 20.2838V0.135193C80.59 38.2687 116.564 61.9332 136.712 68.0183H116.564Z" fill="#007A05"/>
<path d="M20.1484 67.8831C43.4071 57.7142 62.0232 31.823 68.4238 20.1486V0C56.122 38.1336 20.1484 61.798 -0.000205994 67.8831H20.1484Z" fill="#007A05"/>
<path d="M88.3023 2.70453H74.6445C104.828 46.1612 125.365 58.0121 162 68.1536C128.317 47.3526 101.392 34.7903 88.3023 2.70453Z" fill="#007A05"/>
</svg>
